<svg xmlns="http://www.w3.org/2000/svg" viewBox="0 0 160 160" shape-rendering="crispEdges">
  <rect width="160" height="160" rx="16" fill="#e4dacb"/>
  <rect x="10" y="10" width="140" height="140" rx="12" fill="#f6efe7" stroke="#2e241c" stroke-width="4"/>
  <g fill="#2e241c">
    <rect x="40" y="20" width="10" height="10"/><rect x="110" y="20" width="10" height="10"/>
    <rect x="30" y="30" width="10" height="10"/><rect x="40" y="30" width="10" height="10"/><rect x="110" y="30" width="10" height="10"/><rect x="120" y="30" width="10" height="10"/>
    <rect x="30" y="40" width="10" height="10"/><rect x="40" y="40" width="10" height="10"/><rect x="50" y="40" width="10" height="10"/><rect x="60" y="40" width="10" height="10"/><rect x="70" y="40" width="10" height="10"/><rect x="80" y="40" width="10" height="10"/><rect x="90" y="40" width="10" height="10"/><rect x="100" y="40" width="10" height="10"/><rect x="110" y="40" width="10" height="10"/><rect x="120" y="40" width="10" height="10"/>
    <rect x="20" y="50" width="10" height="10"/><rect x="130" y="50" width="10" height="10"/>
    <rect x="20" y="60" width="10" height="10"/><rect x="130" y="60" width="10" height="10"/>
    <rect x="30" y="70" width="10" height="10"/><rect x="120" y="70" width="10" height="10"/>
    <rect x="40" y="80" width="10" height="10"/><rect x="110" y="80" width="10" height="10"/>
  </g>
  <g fill="#8f6b44">
    <rect x="50" y="50" width="10" height="10"/><rect x="60" y="50" width="10" height="10"/><rect x="70" y="50" width="10" height="10"/><rect x="80" y="50" width="10" height="10"/><rect x="90" y="50" width="10" height="10"/><rect x="100" y="50" width="10" height="10"/>
    <rect x="40" y="60" width="10" height="10"/><rect x="50" y="60" width="10" height="10"/><rect x="60" y="60" width="10" height="10"/><rect x="70" y="60" width="10" height="10"/><rect x="80" y="60" width="10" height="10"/><rect x="90" y="60" width="10" height="10"/><rect x="100" y="60" width="10" height="10"/><rect x="110" y="60" width="10" height="10"/>
    <rect x="50" y="70" width="10" height="10"/><rect x="60" y="70" width="10" height="10"/><rect x="70" y="70" width="10" height="10"/><rect x="80" y="70" width="10" height="10"/><rect x="90" y="70" width="10" height="10"/><rect x="100" y="70" width="10" height="10"/>
  </g>
  <g fill="#f6efe7"><rect x="60" y="60" width="10" height="10"/><rect x="90" y="60" width="10" height="10"/></g>
  <g fill="#b94b3d"><rect x="60" y="30" width="40" height="10"/><rect x="70" y="80" width="20" height="10"/></g>
</svg>
