<svg xmlns="http://www.w3.org/2000/svg" viewBox="0 0 160 160" shape-rendering="crispEdges">
  <rect width="160" height="160" rx="16" fill="#d8e4f7"/>
  <rect x="10" y="10" width="140" height="140" rx="12" fill="#eef4ff" stroke="#16233b" stroke-width="4"/>
  <g fill="#16233b">
    <rect x="60" y="20" width="10" height="10"/><rect x="90" y="20" width="10" height="10"/>
    <rect x="50" y="30" width="10" height="10"/><rect x="60" y="30" width="10" height="10"/><rect x="90" y="30" width="10" height="10"/><rect x="100" y="30" width="10" height="10"/>
    <rect x="40" y="40" width="10" height="10"/><rect x="50" y="40" width="10" height="10"/><rect x="60" y="40" width="10" height="10"/><rect x="70" y="40" width="10" height="10"/><rect x="80" y="40" width="10" height="10"/><rect x="90" y="40" width="10" height="10"/><rect x="100" y="40" width="10" height="10"/><rect x="110" y="40" width="10" height="10"/>
    <rect x="40" y="50" width="10" height="10"/><rect x="110" y="50" width="10" height="10"/>
    <rect x="30" y="60" width="10" height="10"/><rect x="120" y="60" width="10" height="10"/>
    <rect x="30" y="70" width="10" height="10"/><rect x="120" y="70" width="10" height="10"/>
    <rect x="30" y="80" width="10" height="10"/><rect x="120" y="80" width="10" height="10"/>
    <rect x="40" y="90" width="10" height="10"/><rect x="110" y="90" width="10" height="10"/>
    <rect x="40" y="100" width="10" height="10"/><rect x="50" y="100" width="10" height="10"/><rect x="60" y="100" width="10" height="10"/><rect x="70" y="100" width="10" height="10"/><rect x="80" y="100" width="10" height="10"/><rect x="90" y="100" width="10" height="10"/><rect x="100" y="100" width="10" height="10"/><rect x="110" y="100" width="10" height="10"/>
  </g>
  <g fill="#5f85d9">
    <rect x="50" y="50" width="10" height="10"/><rect x="60" y="50" width="10" height="10"/><rect x="70" y="50" width="10" height="10"/><rect x="80" y="50" width="10" height="10"/><rect x="90" y="50" width="10" height="10"/><rect x="100" y="50" width="10" height="10"/>
    <rect x="40" y="60" width="10" height="10"/><rect x="50" y="60" width="10" height="10"/><rect x="60" y="60" width="10" height="10"/><rect x="70" y="60" width="10" height="10"/><rect x="80" y="60" width="10" height="10"/><rect x="90" y="60" width="10" height="10"/><rect x="100" y="60" width="10" height="10"/><rect x="110" y="60" width="10" height="10"/>
    <rect x="40" y="70" width="10" height="10"/><rect x="50" y="70" width="10" height="10"/><rect x="60" y="70" width="10" height="10"/><rect x="70" y="70" width="10" height="10"/><rect x="80" y="70" width="10" height="10"/><rect x="90" y="70" width="10" height="10"/><rect x="100" y="70" width="10" height="10"/><rect x="110" y="70" width="10" height="10"/>
    <rect x="40" y="80" width="10" height="10"/><rect x="50" y="80" width="10" height="10"/><rect x="60" y="80" width="10" height="10"/><rect x="70" y="80" width="10" height="10"/><rect x="80" y="80" width="10" height="10"/><rect x="90" y="80" width="10" height="10"/><rect x="100" y="80" width="10" height="10"/><rect x="110" y="80" width="10" height="10"/>
    <rect x="50" y="90" width="10" height="10"/><rect x="60" y="90" width="10" height="10"/><rect x="70" y="90" width="10" height="10"/><rect x="80" y="90" width="10" height="10"/><rect x="90" y="90" width="10" height="10"/><rect x="100" y="90" width="10" height="10"/>
  </g>
  <g fill="#eef4ff"><rect x="60" y="70" width="10" height="10"/><rect x="90" y="70" width="10" height="10"/></g>
  <rect x="60" y="20" width="40" height="10" fill="#c9d7f4"/>
</svg>
